<svg width="980" height="320" viewBox="0 0 980 320" fill="none" xmlns="http://www.w3.org/2000/svg" role="img" aria-labelledby="title desc">
  <title id="title">rest</title>
  <desc id="desc">A colorful tropical rest badge with a palm tree, the phrase Give yourself a little, and the tagline Write queries. Get an application. Add business logic.</desc>

  <defs>
    <linearGradient id="bg" x1="0" y1="0" x2="980" y2="320" gradientUnits="userSpaceOnUse">
      <stop offset="0" stop-color="#38BDF8"/>
      <stop offset="0.32" stop-color="#8B5CF6"/>
      <stop offset="0.66" stop-color="#F97316"/>
      <stop offset="1" stop-color="#10B981"/>
    </linearGradient>
    <linearGradient id="shade" x1="120" y1="28" x2="850" y2="318" gradientUnits="userSpaceOnUse">
      <stop stop-color="#020617" stop-opacity="0.12"/>
      <stop offset="0.5" stop-color="#020617" stop-opacity="0.04"/>
      <stop offset="1" stop-color="#020617" stop-opacity="0.22"/>
    </linearGradient>
    <filter id="softShadow" x="-20%" y="-20%" width="140%" height="140%">
      <feDropShadow dx="0" dy="22" stdDeviation="22" flood-color="#020617" flood-opacity="0.24"/>
    </filter>
  </defs>

  <rect width="980" height="320" rx="54" fill="url(#bg)"/>
  <rect width="980" height="320" rx="54" fill="url(#shade)"/>
  <circle cx="118" cy="78" r="190" fill="#F8FAFC" opacity="0.12"/>
  <circle cx="882" cy="280" r="210" fill="#020617" opacity="0.10"/>
  <circle cx="736" cy="18" r="150" fill="#F8FAFC" opacity="0.10"/>

  <g transform="translate(86 58)" filter="url(#softShadow)" opacity="0.98">
    <path d="M97 160C135 160 167 176 187 202H7C27 176 59 160 97 160Z" fill="#F8FAFC"/>
    <path d="M88 78C87 68 94 61 104 61C114 61 121 69 119 78L107 180H78L88 78Z" fill="#F8FAFC"/>
    <path d="M102 67C62 42 24 49 0 78C38 80 75 83 102 67Z" fill="#F8FAFC"/>
    <path d="M103 67C73 25 34 8 -5 20C26 46 61 66 103 67Z" fill="#F8FAFC"/>
    <path d="M104 67C124 21 161 -4 207 -4C181 37 147 63 104 67Z" fill="#F8FAFC"/>
    <path d="M104 70C149 46 188 53 216 86C172 87 136 85 104 70Z" fill="#F8FAFC"/>
    <path d="M104 70C130 87 145 112 147 144C119 130 104 106 104 70Z" fill="#F8FAFC"/>
  </g>

  <g font-family="Inter, ui-sans-serif, system-ui, -apple-system, BlinkMacSystemFont, Segoe UI, sans-serif" filter="url(#softShadow)">
    <text x="330" y="92" fill="#F8FAFC" font-size="32" font-weight="650" letter-spacing="0.2">Give yourself a little</text>
    <text x="322" y="205" fill="#F8FAFC" font-size="122" font-weight="850" letter-spacing="-4">rest</text>
    <text x="330" y="252" fill="#ECFEFF" font-size="25" font-weight="650" letter-spacing="0.1">Write queries. Get an application. Add business logic.</text>
  </g>
</svg>
